<svg width="20" height="20" viewBox="0 0 20 20" fill="none" xmlns="http://www.w3.org/2000/svg">
<g clip-path="url(#clip0_247_8)">
<path d="M15.6964 16.9011C15.805 17.0101 15.9579 17.0683 16.0961 17.0683C16.3868 17.0683 16.6557 16.8065 16.6557 16.5083C16.6557 16.3629 16.5975 16.2176 16.4886 16.1083L4.32571 3.95327C4.27289 3.90153 4.21036 3.86075 4.14171 3.83329C4.07305 3.80583 3.99965 3.79223 3.92571 3.79327C3.635 3.79327 3.36607 4.05505 3.36607 4.34577C3.36607 4.49863 3.41714 4.64398 3.52607 4.74577L15.6964 16.9011ZM16.3796 14.8436C18.6625 13.3679 20 11.4486 20 10.5979C20 9.1222 15.9654 4.41827 10.0036 4.41827C8.76786 4.41827 7.61179 4.62898 6.55036 4.97791L8.44786 6.86827C8.93911 6.65642 9.46858 6.54751 10.0036 6.54827C12.2571 6.54827 14.0679 8.3297 14.0679 10.5979C14.0679 11.1504 13.9514 11.6811 13.7257 12.1465L16.3796 14.8436ZM10.0036 16.7776C11.3486 16.7776 12.5989 16.5376 13.7186 16.1451L11.7921 14.2183C11.2391 14.503 10.6256 14.6502 10.0036 14.6472C7.73571 14.6472 5.93964 12.8079 5.93214 10.5979C5.93214 9.94363 6.085 9.32577 6.36143 8.78005L3.83143 6.23577C1.43214 7.71148 0 9.72541 0 10.5979C0 12.0665 4.1075 16.7776 10.0036 16.7776ZM12.3154 10.4454C12.3157 10.142 12.2561 9.84158 12.14 9.56131C12.0239 9.28104 11.8535 9.02649 11.6387 8.81228C11.4238 8.59808 11.1688 8.42845 10.8882 8.31315C10.6076 8.19784 10.3069 8.13914 10.0036 8.14041C9.90929 8.14041 9.81429 8.14755 9.7275 8.15505L12.3011 10.7286C12.3082 10.6415 12.3154 10.5401 12.3154 10.4454ZM7.68464 10.4304C7.68464 11.7097 8.73857 12.7422 10.0111 12.7422C10.1129 12.7422 10.2075 12.7351 10.3089 12.7279L7.69893 10.1176C7.69179 10.2193 7.68464 10.3283 7.68464 10.4304Z" fill="#B9C4D1"/>
</g>
<defs>
<clipPath id="clip0_247_8">
<rect width="20" height="20" fill="white"/>
</clipPath>
</defs>
</svg>
