<svg width="60" height="60" viewBox="0 0 60 60" fill="none" xmlns="http://www.w3.org/2000/svg">
<path d="M0 14.9443V47.4478C0 49.3363 1.05208 51.1199 2.8125 51.7809C11.875 55.1907 20.9375 52.8615 30 50.5323C38.3125 48.4025 46.625 46.2622 54.9271 48.5494C57.3229 49.2104 60 47.5527 60 45.0452V12.5522C60 10.6637 58.9479 8.88012 57.1875 8.21914C48.125 4.80932 39.0625 7.13849 30 9.46766C21.6875 11.5975 13.375 13.7273 5.07292 11.4401C2.66667 10.7791 0 12.4368 0 14.9443ZM30 40.0721C25.3958 40.0721 21.6667 35.5606 21.6667 30C21.6667 24.4394 25.3958 19.9279 30 19.9279C34.6042 19.9279 38.3333 24.4394 38.3333 30C38.3333 35.5606 34.6042 40.0721 30 40.0721ZM6.66667 40.0721C10.3437 40.0721 13.3333 43.0832 13.3333 46.7868H6.66667V40.0721ZM13.3333 18.2492C13.3333 21.9528 10.3437 24.964 6.66667 24.964V18.2492H13.3333ZM53.3333 35.036V41.7508H46.6667C46.6667 38.0472 49.6562 35.036 53.3333 35.036ZM46.6667 13.2132H53.3333V19.9279C49.6562 19.9279 46.6667 16.9168 46.6667 13.2132Z" fill="url(#paint0_linear_273_18)"/>
<defs>
<linearGradient id="paint0_linear_273_18" x1="30" y1="6.5" x2="30" y2="53.5" gradientUnits="userSpaceOnUse">
<stop stop-color="#2868C8"/>
<stop offset="1" stop-color="#143362"/>
</linearGradient>
</defs>
</svg>
