<svg width="60" height="60" viewBox="0 0 60 60" fill="none" xmlns="http://www.w3.org/2000/svg">
<path d="M39.4743 39.0002C37.3518 38.1508 36.5043 35.8164 36.5043 35.8164C36.5043 35.8164 35.548 36.3452 35.548 34.8602C35.548 33.3752 36.5043 35.8164 37.4605 30.0827C37.4605 30.0827 40.1099 29.3383 39.5793 23.1827H38.9418C38.9418 23.1827 40.5355 16.6014 38.9418 14.3702C37.348 12.1427 36.7143 10.6577 33.2099 9.59457C29.7055 8.53145 30.9824 8.74332 28.4343 8.85207C25.8843 8.96082 23.7618 10.3389 23.7618 11.0833C23.7618 11.0833 22.168 11.1883 21.5343 11.8258C20.8968 12.4633 19.8355 15.4333 19.8355 16.1758C19.8355 16.9183 20.3661 21.9133 20.8968 22.9727L20.2649 23.1864C19.7324 29.3421 22.3836 30.0864 22.3836 30.0864C23.3399 35.8202 24.2961 33.3789 24.2961 34.8639C24.2961 36.3489 23.3399 35.8202 23.3399 35.8202C23.3399 35.8202 22.4924 38.1546 20.3699 39.0039C18.2474 39.8514 6.46488 44.4152 5.50676 45.3714C4.54676 46.3277 4.65551 50.7864 4.65551 50.7864H55.1811C55.1811 50.7864 55.2936 46.3296 54.3336 45.3714C53.3774 44.4152 41.593 39.8514 39.4705 39.0039L39.4743 39.0002ZM16.093 38.6777C15.9055 38.3402 15.8155 38.0964 15.8155 38.0964C15.8155 38.0964 15.0055 38.5464 15.0055 37.2864C15.0055 36.0264 15.8155 38.0964 16.6255 33.2364C16.6255 33.2364 18.8755 32.6083 18.4255 27.3902H17.8818C17.8818 27.3902 18.1518 26.2839 18.328 24.8889C18.3201 24.2657 18.3433 23.6424 18.3974 23.0214L18.4686 22.2227C18.4311 21.3002 18.268 20.4602 17.8836 19.9239C16.5336 18.0358 15.9936 16.7739 13.0274 15.8739C10.0574 14.9739 11.1336 15.1539 8.97738 15.2458C6.81738 15.3396 5.01738 16.5058 5.01738 17.1396C5.01738 17.1396 3.66738 17.2277 3.12738 17.7677C2.62113 18.2739 1.80551 20.5089 1.70801 21.3021V21.8271C1.79801 23.0533 2.19551 26.4208 2.58926 27.2139L2.05301 27.3939C1.60301 32.6102 3.85301 33.2402 3.85301 33.2402C4.65926 38.0964 5.47113 36.0302 5.47113 37.2902C5.47113 38.5502 4.66113 38.0964 4.66113 38.0964C4.66113 38.0964 3.94301 40.0802 2.14301 40.7964L1.70801 40.9689V50.7827H2.78613C2.72988 48.3864 2.93051 45.2946 4.18488 44.0439C4.85426 43.3783 7.04238 42.2814 16.0968 38.6777H16.093ZM57.9618 21.6977C57.8868 20.9889 57.7236 20.3571 57.4143 19.9239C56.068 18.0339 55.5261 16.7739 52.558 15.8739C49.5899 14.9739 50.6699 15.1539 48.508 15.2458C46.3518 15.3396 44.5518 16.5058 44.5518 17.1396C44.5518 17.1396 43.2018 17.2277 42.6618 17.7677C42.1555 18.2777 41.3305 20.5277 41.2405 21.3114H41.3024L41.4524 23.0252C41.4899 23.4564 41.4936 23.8408 41.503 24.2327C41.6718 25.4814 41.8968 26.7639 42.1218 27.2139L41.5855 27.3921C41.1355 32.6083 43.3855 33.2383 43.3855 33.2383C44.1955 38.0946 45.0036 36.0283 45.0036 37.2883C45.0036 38.5483 44.1974 38.0946 44.1974 38.0946C44.1974 38.0946 44.0961 38.3627 43.8899 38.7321C52.8336 42.2946 55.003 43.3821 55.6649 44.0439C56.9211 45.2964 57.1161 48.3864 57.0618 50.7846H57.9618V40.8377L57.868 40.7964C56.068 40.0783 55.348 38.0964 55.348 38.0964C55.348 38.0964 54.5361 38.5464 54.5361 37.2902C54.5361 36.0339 55.348 38.0964 56.1561 33.2402C56.1561 33.2402 57.6636 32.8089 57.9618 29.7902V27.4877C57.9618 27.4539 57.9618 27.4258 57.9561 27.3939H57.4124C57.4124 27.3939 57.8174 25.7252 57.9618 23.9027V21.6977Z" fill="url(#paint0_linear_273_2)"/>
<defs>
<linearGradient id="paint0_linear_273_2" x1="29.8349" y1="8.75879" x2="29.8349" y2="50.7864" gradientUnits="userSpaceOnUse">
<stop stop-color="#2767C6"/>
<stop offset="1" stop-color="#133260"/>
</linearGradient>
</defs>
</svg>
